<svg width="285" height="85" viewBox="0 0 285 85" fill="none" xmlns="http://www.w3.org/2000/svg">
<path d="M42.9257 46.36L39.7577 37.944C39.5017 37.2933 39.2404 36.4667 38.9738 35.464C38.8564 35.9653 38.7284 36.4293 38.5898 36.856C38.4511 37.272 38.3231 37.64 38.2057 37.96L35.0377 46.36H42.9257ZM50.0138 55H47.1178C46.7871 55 46.5204 54.92 46.3178 54.76C46.1151 54.5893 45.9604 54.3813 45.8538 54.136L43.9338 49.048H34.0137L32.0937 54.136C32.0084 54.3493 31.8591 54.5467 31.6457 54.728C31.4324 54.9093 31.1657 55 30.8457 55H27.9497L37.0857 31.96H40.8778L50.0138 55ZM69.4385 35.896C69.3212 36.088 69.1985 36.232 69.0705 36.328C68.9425 36.4133 68.7825 36.456 68.5905 36.456C68.3878 36.456 68.1585 36.3707 67.9025 36.2C67.6572 36.0293 67.3478 35.8427 66.9745 35.64C66.6118 35.4267 66.1798 35.2347 65.6785 35.064C65.1772 34.8827 64.5798 34.792 63.8865 34.792C63.2465 34.792 62.6812 34.872 62.1905 35.032C61.7105 35.192 61.3052 35.416 60.9745 35.704C60.6438 35.992 60.3932 36.3333 60.2225 36.728C60.0625 37.112 59.9825 37.5333 59.9825 37.992C59.9825 38.5787 60.1372 39.0693 60.4465 39.464C60.7558 39.848 61.1612 40.1787 61.6625 40.456C62.1745 40.7333 62.7558 40.9787 63.4065 41.192C64.0572 41.3947 64.7185 41.6133 65.3905 41.848C66.0732 42.0827 66.7398 42.3493 67.3905 42.648C68.0412 42.9467 68.6172 43.3253 69.1185 43.784C69.6305 44.2427 70.0412 44.8027 70.3505 45.464C70.6598 46.1253 70.8145 46.9307 70.8145 47.88C70.8145 48.904 70.6385 49.864 70.2865 50.76C69.9345 51.656 69.4225 52.44 68.7505 53.112C68.0892 53.7733 67.2678 54.296 66.2865 54.68C65.3158 55.064 64.2065 55.256 62.9585 55.256C62.2225 55.256 61.5025 55.1813 60.7985 55.032C60.1052 54.8933 59.4385 54.696 58.7985 54.44C58.1692 54.1733 57.5772 53.8533 57.0225 53.48C56.4678 53.1067 55.9718 52.6907 55.5345 52.232L56.6225 50.44C56.7185 50.2907 56.8412 50.1733 56.9905 50.088C57.1398 50.0027 57.3052 49.96 57.4865 49.96C57.7318 49.96 58.0038 50.0773 58.3025 50.312C58.6012 50.536 58.9585 50.7867 59.3745 51.064C59.8012 51.3307 60.3132 51.5813 60.9105 51.816C61.5078 52.04 62.2225 52.152 63.0545 52.152C64.4092 52.152 65.4545 51.8213 66.1905 51.16C66.9372 50.4987 67.3105 49.5867 67.3105 48.424C67.3105 47.7733 67.1558 47.2453 66.8465 46.84C66.5372 46.424 66.1265 46.0773 65.6145 45.8C65.1132 45.5227 64.5372 45.288 63.8865 45.096C63.2358 44.904 62.5745 44.7013 61.9025 44.488C61.2305 44.264 60.5692 44.008 59.9185 43.72C59.2678 43.4213 58.6865 43.0373 58.1745 42.568C57.6732 42.088 57.2678 41.5013 56.9585 40.808C56.6492 40.104 56.4945 39.2293 56.4945 38.184C56.4945 37.352 56.6545 36.5467 56.9745 35.768C57.3052 34.9893 57.7798 34.3013 58.3985 33.704C59.0278 33.096 59.8012 32.6107 60.7185 32.248C61.6358 31.8853 62.6812 31.704 63.8545 31.704C65.1772 31.704 66.3878 31.912 67.4865 32.328C68.5958 32.744 69.5505 33.336 70.3505 34.104L69.4385 35.896ZM98.6192 31.96V55H94.8752V44.744H83.3072V55H79.5472V31.96H83.3072V42.04H94.8752V31.96H98.6192ZM122.11 51.864V55H108.798V31.96H112.542V51.864H122.11ZM144.401 51.976L144.385 55H130.017V31.96H144.385V34.984H133.777V41.928H142.257V44.856H133.777V51.976H144.401ZM162.454 45.976V55H158.726V45.976L150.31 31.96H153.59C153.921 31.96 154.182 32.04 154.374 32.2C154.566 32.36 154.726 32.5627 154.854 32.808L159.574 41.064C159.788 41.48 159.98 41.8747 160.15 42.248C160.332 42.6213 160.492 42.9893 160.63 43.352C160.748 42.9787 160.892 42.6107 161.062 42.248C161.233 41.8747 161.425 41.48 161.638 41.064L166.326 32.808C166.433 32.5947 166.588 32.4027 166.79 32.232C166.993 32.0507 167.254 31.96 167.574 31.96H170.87L162.454 45.976ZM193.325 41.816H194.397C194.802 41.816 195.133 41.7627 195.389 41.656C195.645 41.5387 195.874 41.3573 196.077 41.112L203.053 32.792C203.298 32.4827 203.549 32.2693 203.805 32.152C204.072 32.024 204.402 31.96 204.797 31.96H207.997L199.757 41.688C199.533 41.9653 199.314 42.2 199.101 42.392C198.898 42.5733 198.674 42.7227 198.429 42.84C198.749 42.9573 199.037 43.1227 199.293 43.336C199.549 43.5387 199.8 43.8107 200.045 44.152L208.589 55H205.325C205.09 55 204.888 54.984 204.717 54.952C204.557 54.92 204.413 54.872 204.285 54.808C204.168 54.744 204.061 54.664 203.965 54.568C203.88 54.472 203.8 54.3653 203.725 54.248L196.525 45.448C196.418 45.3093 196.312 45.192 196.205 45.096C196.098 45 195.97 44.92 195.821 44.856C195.682 44.792 195.522 44.7493 195.341 44.728C195.16 44.696 194.946 44.68 194.701 44.68H193.325V55H189.581V31.96H193.325V41.816ZM219.623 55H215.863V31.96H219.623V55ZM254.282 31.96V55H250.986V39.208C250.986 38.952 250.991 38.6747 251.002 38.376C251.023 38.0667 251.05 37.7573 251.082 37.448L243.674 51.128C243.386 51.6933 242.943 51.976 242.346 51.976H241.818C241.21 51.976 240.767 51.6933 240.49 51.128L232.97 37.416C233.002 37.7253 233.023 38.0347 233.034 38.344C233.055 38.6533 233.066 38.9413 233.066 39.208V55H229.77V31.96H232.57C232.9 31.96 233.156 31.992 233.338 32.056C233.519 32.1093 233.684 32.2853 233.834 32.584L241.226 45.976C241.386 46.2853 241.535 46.6053 241.674 46.936C241.823 47.256 241.956 47.5867 242.074 47.928C242.202 47.5867 242.335 47.2507 242.474 46.92C242.623 46.5787 242.778 46.2533 242.938 45.944L250.218 32.584C250.367 32.2853 250.532 32.1093 250.714 32.056C250.895 31.992 251.151 31.96 251.482 31.96H254.282Z" fill="#FF8A00"/>
<line x1="30.7" y1="54.7" x2="30.7" y2="68.3" stroke="#FF8A00" stroke-width="3.4" stroke-linecap="square"/>
<line x1="252.65" y1="52.65" x2="252.65" y2="68.35" stroke="#FF8A00" stroke-width="3.3" stroke-linecap="square"/>
<line x1="30" y1="68.3" x2="254" y2="68.3" stroke="#FF8A00" stroke-width="3.4"/>
<line x1="27.5" y1="50.5" x2="27.5" y2="58.5" stroke="white" stroke-width="3" stroke-linecap="square"/>
</svg>
