<svg width="2079" height="714" viewBox="0 0 2079 714" fill="none" xmlns="http://www.w3.org/2000/svg">
<rect x="56" width="1983" height="714" fill="white"/>
<path d="M261.488 339.5L236.738 273.75C234.738 268.667 232.696 262.208 230.613 254.375C229.696 258.292 228.696 261.917 227.613 265.25C226.53 268.5 225.53 271.375 224.613 273.875L199.863 339.5H261.488ZM316.863 407H294.238C291.655 407 289.571 406.375 287.988 405.125C286.405 403.792 285.196 402.167 284.363 400.25L269.363 360.5H191.863L176.863 400.25C176.196 401.917 175.03 403.458 173.363 404.875C171.696 406.292 169.613 407 167.113 407H144.488L215.863 227H245.488L316.863 407ZM468.619 257.75C467.702 259.25 466.744 260.375 465.744 261.125C464.744 261.792 463.494 262.125 461.994 262.125C460.41 262.125 458.619 261.458 456.619 260.125C454.702 258.792 452.285 257.333 449.369 255.75C446.535 254.083 443.16 252.583 439.244 251.25C435.327 249.833 430.66 249.125 425.244 249.125C420.244 249.125 415.827 249.75 411.994 251C408.244 252.25 405.077 254 402.494 256.25C399.91 258.5 397.952 261.167 396.619 264.25C395.369 267.25 394.744 270.542 394.744 274.125C394.744 278.708 395.952 282.542 398.369 285.625C400.785 288.625 403.952 291.208 407.869 293.375C411.869 295.542 416.41 297.458 421.494 299.125C426.577 300.708 431.744 302.417 436.994 304.25C442.327 306.083 447.535 308.167 452.619 310.5C457.702 312.833 462.202 315.792 466.119 319.375C470.119 322.958 473.327 327.333 475.744 332.5C478.16 337.667 479.369 343.958 479.369 351.375C479.369 359.375 477.994 366.875 475.244 373.875C472.494 380.875 468.494 387 463.244 392.25C458.077 397.417 451.66 401.5 443.994 404.5C436.41 407.5 427.744 409 417.994 409C412.244 409 406.619 408.417 401.119 407.25C395.702 406.167 390.494 404.625 385.494 402.625C380.577 400.542 375.952 398.042 371.619 395.125C367.285 392.208 363.41 388.958 359.994 385.375L368.494 371.375C369.244 370.208 370.202 369.292 371.369 368.625C372.535 367.958 373.827 367.625 375.244 367.625C377.16 367.625 379.285 368.542 381.619 370.375C383.952 372.125 386.744 374.083 389.994 376.25C393.327 378.333 397.327 380.292 401.994 382.125C406.66 383.875 412.244 384.75 418.744 384.75C429.327 384.75 437.494 382.167 443.244 377C449.077 371.833 451.994 364.708 451.994 355.625C451.994 350.542 450.785 346.417 448.369 343.25C445.952 340 442.744 337.292 438.744 335.125C434.827 332.958 430.327 331.125 425.244 329.625C420.16 328.125 414.994 326.542 409.744 324.875C404.494 323.125 399.327 321.125 394.244 318.875C389.16 316.542 384.619 313.542 380.619 309.875C376.702 306.125 373.535 301.542 371.119 296.125C368.702 290.625 367.494 283.792 367.494 275.625C367.494 269.125 368.744 262.833 371.244 256.75C373.827 250.667 377.535 245.292 382.369 240.625C387.285 235.875 393.327 232.083 400.494 229.25C407.66 226.417 415.827 225 424.994 225C435.327 225 444.785 226.625 453.369 229.875C462.035 233.125 469.494 237.75 475.744 243.75L468.619 257.75ZM696.593 227V407H667.343V326.875H576.968V407H547.593V227H576.968V305.75H667.343V227H696.593ZM880.113 382.5V407H776.113V227H805.363V382.5H880.113ZM1054.26 383.375L1054.14 407H941.888V227H1054.14V250.625H971.263V304.875H1037.51V327.75H971.263V383.375H1054.26ZM1195.31 336.5V407H1166.18V336.5L1100.43 227H1126.06C1128.64 227 1130.68 227.625 1132.18 228.875C1133.68 230.125 1134.93 231.708 1135.93 233.625L1172.81 298.125C1174.47 301.375 1175.97 304.458 1177.31 307.375C1178.72 310.292 1179.97 313.167 1181.06 316C1181.97 313.083 1183.1 310.208 1184.43 307.375C1185.76 304.458 1187.26 301.375 1188.93 298.125L1225.56 233.625C1226.39 231.958 1227.6 230.458 1229.18 229.125C1230.76 227.708 1232.81 227 1235.31 227H1261.06L1195.31 336.5ZM1436.48 304H1444.86C1448.02 304 1450.61 303.583 1452.61 302.75C1454.61 301.833 1456.4 300.417 1457.98 298.5L1512.48 233.5C1514.4 231.083 1516.36 229.417 1518.36 228.5C1520.44 227.5 1523.02 227 1526.11 227H1551.11L1486.73 303C1484.98 305.167 1483.27 307 1481.61 308.5C1480.02 309.917 1478.27 311.083 1476.36 312C1478.86 312.917 1481.11 314.208 1483.11 315.875C1485.11 317.458 1487.07 319.583 1488.98 322.25L1555.73 407H1530.23C1528.4 407 1526.82 406.875 1525.48 406.625C1524.23 406.375 1523.11 406 1522.11 405.5C1521.19 405 1520.36 404.375 1519.61 403.625C1518.94 402.875 1518.32 402.042 1517.73 401.125L1461.48 332.375C1460.65 331.292 1459.82 330.375 1458.98 329.625C1458.15 328.875 1457.15 328.25 1455.98 327.75C1454.9 327.25 1453.65 326.917 1452.23 326.75C1450.82 326.5 1449.15 326.375 1447.23 326.375H1436.48V407H1407.23V227H1436.48V304ZM1641.93 407H1612.56V227H1641.93V407ZM1912.7 227V407H1886.95V283.625C1886.95 281.625 1887 279.458 1887.08 277.125C1887.25 274.708 1887.45 272.292 1887.7 269.875L1829.83 376.75C1827.58 381.167 1824.12 383.375 1819.45 383.375H1815.33C1810.58 383.375 1807.12 381.167 1804.95 376.75L1746.2 269.625C1746.45 272.042 1746.62 274.458 1746.7 276.875C1746.87 279.292 1746.95 281.542 1746.95 283.625V407H1721.2V227H1743.08C1745.66 227 1747.66 227.25 1749.08 227.75C1750.5 228.167 1751.79 229.542 1752.95 231.875L1810.7 336.5C1811.95 338.917 1813.12 341.417 1814.2 344C1815.37 346.5 1816.41 349.083 1817.33 351.75C1818.33 349.083 1819.37 346.458 1820.45 343.875C1821.62 341.208 1822.83 338.667 1824.08 336.25L1880.95 231.875C1882.12 229.542 1883.41 228.167 1884.83 227.75C1886.25 227.25 1888.25 227 1890.83 227H1912.7Z" fill="#FF8A00"/>
<line x1="165.5" y1="399.5" x2="165.5" y2="498.5" stroke="#FF8A00" stroke-width="25" stroke-linecap="square"/>
<line x1="1899.9" y1="384.9" x2="1899.9" y2="498.1" stroke="#FF8A00" stroke-width="25.8" stroke-linecap="square"/>
<line x1="169" y1="498.5" x2="1895" y2="498.5" stroke="#FF8A00" stroke-width="25"/>
<rect x="119" y="357" width="34" height="92" fill="white"/>
</svg>
