<svg width="35" height="28" viewBox="0 0 35 28" fill="none" xmlns="http://www.w3.org/2000/svg">
<path d="M31.5 0.38324H3.5C1.575 0.38324 0.0175 1.90199 0.0175 3.75824L0 24.0082C0 25.8645 1.575 27.3832 3.5 27.3832H31.5C33.425 27.3832 35 25.8645 35 24.0082V3.75824C35 1.90199 33.425 0.38324 31.5 0.38324ZM30.8 7.55511L18.4275 15.0139C17.8675 15.3514 17.1325 15.3514 16.5725 15.0139L4.2 7.55511C4.02452 7.46013 3.87086 7.33179 3.74831 7.17788C3.62575 7.02397 3.53686 6.84768 3.48701 6.65968C3.43715 6.47168 3.42738 6.27588 3.45827 6.08413C3.48917 5.89238 3.56009 5.70868 3.66674 5.54412C3.7734 5.37957 3.91357 5.2376 4.07877 5.12679C4.24397 5.01599 4.43077 4.93867 4.62787 4.89949C4.82496 4.86032 5.02825 4.86012 5.22542 4.8989C5.4226 4.93768 5.60956 5.01464 5.775 5.12511L17.5 12.1957L29.225 5.12511C29.3904 5.01464 29.5774 4.93768 29.7746 4.8989C29.9718 4.86012 30.175 4.86032 30.3721 4.89949C30.5692 4.93867 30.756 5.01599 30.9212 5.12679C31.0864 5.2376 31.2266 5.37957 31.3333 5.54412C31.4399 5.70868 31.5108 5.89238 31.5417 6.08413C31.5726 6.27588 31.5628 6.47168 31.513 6.65968C31.4631 6.84768 31.3742 7.02397 31.2517 7.17788C31.1291 7.33179 30.9755 7.46013 30.8 7.55511V7.55511Z" fill="#999999"/>
</svg>
