<svg width="28" height="28" viewBox="0 0 28 28" fill="none" xmlns="http://www.w3.org/2000/svg">
<path d="M14 0.38324C6.265 0.38324 0 6.5773 0 14.2247C0 20.3496 4.0075 25.5228 9.5725 27.3568C10.2725 27.4779 10.535 27.0627 10.535 26.6993C10.535 26.3706 10.5175 25.2806 10.5175 24.1214C7 24.7615 6.09 23.2736 5.81 22.495C5.6525 22.097 4.97 20.8686 4.375 20.5399C3.885 20.2803 3.185 19.6402 4.3575 19.6229C5.46 19.6056 6.2475 20.6264 6.51 21.0416C7.77 23.1352 9.7825 22.5469 10.5875 22.1835C10.71 21.2839 11.0775 20.6783 11.48 20.3323C8.365 19.9862 5.11 18.7924 5.11 13.498C5.11 11.9928 5.6525 10.747 6.545 9.77814C6.405 9.4321 5.915 8.01335 6.685 6.11015C6.685 6.11015 7.8575 5.74681 10.535 7.5289C11.655 7.21746 12.845 7.06175 14.035 7.06175C15.225 7.06175 16.415 7.21746 17.535 7.5289C20.2125 5.72951 21.385 6.11015 21.385 6.11015C22.155 8.01335 21.665 9.4321 21.525 9.77814C22.4175 10.747 22.96 11.9755 22.96 13.498C22.96 18.8097 19.6875 19.9862 16.5725 20.3323C17.08 20.7648 17.5175 21.5953 17.5175 22.8929C17.5175 24.7442 17.5 26.2322 17.5 26.6993C17.5 27.0627 17.7625 27.4952 18.4625 27.3568C21.2419 26.4294 23.6571 24.6635 25.368 22.3077C27.079 19.9519 27.9995 17.1249 28 14.2247C28 6.5773 21.735 0.38324 14 0.38324Z" fill="#999999"/>
</svg>
