<svg width="29" height="29" viewBox="0 0 29 29" fill="none" xmlns="http://www.w3.org/2000/svg">
<path d="M28.4318 8.28289C28.4161 7.10459 28.1956 5.938 27.78 4.83532C27.4196 3.90521 26.8691 3.0605 26.1638 2.35516C25.4585 1.64983 24.6138 1.09938 23.6836 0.738988C22.5951 0.330378 21.4452 0.109434 20.2827 0.0855672C18.7861 0.0186693 18.3116 0 14.5124 0C10.7132 0 10.2263 1.04322e-07 8.74052 0.0855672C7.57861 0.10961 6.4292 0.33055 5.34118 0.738988C4.41092 1.09913 3.56608 1.64949 2.86072 2.35486C2.15535 3.06022 1.60499 3.90506 1.24485 4.83532C0.835419 5.923 0.614954 7.07268 0.592982 8.23466C0.526084 9.73286 0.505859 10.2074 0.505859 14.0065C0.505859 17.8057 0.505859 18.2911 0.592982 19.7784C0.616319 20.9421 0.835681 22.0903 1.24485 23.1809C1.60559 24.1109 2.15636 24.9554 2.86196 25.6604C3.56757 26.3655 4.41248 26.9156 5.34273 27.2757C6.42777 27.7007 7.57739 27.9375 8.74208 27.9758C10.2403 28.0427 10.7148 28.0629 14.514 28.0629C18.3131 28.0629 18.8001 28.0629 20.2858 27.9758C21.4482 27.9529 22.5983 27.7324 23.6867 27.3239C24.6166 26.9631 25.4611 26.4125 26.1664 25.7072C26.8717 25.0019 27.4223 24.1574 27.7831 23.2276C28.1922 22.1385 28.4116 20.9904 28.4349 19.8251C28.5018 18.3285 28.5221 17.854 28.5221 14.0532C28.519 10.254 28.519 9.77176 28.4318 8.28289ZM14.5031 21.1911C10.5297 21.1911 7.31077 17.9722 7.31077 13.9988C7.31077 10.0253 10.5297 6.80647 14.5031 6.80647C16.4106 6.80647 18.24 7.56423 19.5888 8.91305C20.9376 10.2619 21.6954 12.0913 21.6954 13.9988C21.6954 15.9063 20.9376 17.7357 19.5888 19.0845C18.24 20.4333 16.4106 21.1911 14.5031 21.1911ZM21.9816 8.21755C21.7613 8.21775 21.5432 8.17451 21.3396 8.0903C21.136 8.00609 20.9511 7.88257 20.7953 7.72679C20.6395 7.57101 20.516 7.38605 20.4318 7.18248C20.3476 6.97891 20.3043 6.76073 20.3045 6.54043C20.3045 6.32029 20.3479 6.10231 20.4321 5.89893C20.5164 5.69555 20.6398 5.51075 20.7955 5.35509C20.9512 5.19942 21.136 5.07595 21.3393 4.9917C21.5427 4.90746 21.7607 4.8641 21.9809 4.8641C22.201 4.8641 22.419 4.90746 22.6224 4.9917C22.8257 5.07595 23.0105 5.19942 23.1662 5.35509C23.3219 5.51075 23.4453 5.69555 23.5296 5.89893C23.6138 6.10231 23.6572 6.32029 23.6572 6.54043C23.6572 7.46767 22.9073 8.21755 21.9816 8.21755Z" fill="#999999"/>
<path d="M14.503 18.6707C17.0833 18.6707 19.175 16.579 19.175 13.9987C19.175 11.4185 17.0833 9.32678 14.503 9.32678C11.9228 9.32678 9.83105 11.4185 9.83105 13.9987C9.83105 16.579 11.9228 18.6707 14.503 18.6707Z" fill="#999999"/>
</svg>
