<svg width="28" height="29" viewBox="0 0 28 29" fill="none" xmlns="http://www.w3.org/2000/svg">
<path fill-rule="evenodd" clip-rule="evenodd" d="M3.46258e-07 2.72252C3.46258e-07 2.1021 0.246459 1.5071 0.685157 1.0684C1.12386 0.629701 1.71886 0.383243 2.33927 0.383243H25.6582C25.9656 0.382741 26.2702 0.442887 26.5544 0.560237C26.8385 0.677587 27.0968 0.849837 27.3143 1.06713C27.5318 1.28441 27.7044 1.54247 27.822 1.82653C27.9397 2.11058 28.0002 2.41506 28 2.72252V26.0414C28.0003 26.3489 27.94 26.6535 27.8225 26.9377C27.705 27.2219 27.5327 27.4801 27.3153 27.6976C27.0979 27.9151 26.8398 28.0877 26.5556 28.2053C26.2715 28.3229 25.967 28.3834 25.6595 28.3832H2.33927C2.03197 28.3832 1.72767 28.3227 1.44378 28.2051C1.15988 28.0874 0.901945 27.915 0.684707 27.6976C0.467469 27.4803 0.295186 27.2222 0.177701 26.9383C0.0602169 26.6543 -0.000166849 26.35 3.46258e-07 26.0427V2.72252ZM11.0829 11.0589H14.8744V12.9629C15.4216 11.8683 16.8216 10.8832 18.9255 10.8832C22.9587 10.8832 23.9145 13.0634 23.9145 17.0636V24.4734H19.8329V17.9749C19.8329 15.6967 19.2856 14.4112 17.8958 14.4112C15.9676 14.4112 15.1658 15.7972 15.1658 17.9749V24.4734H11.0829V11.0589ZM4.08291 24.2991H8.16582V10.8832H4.08291V24.2978V24.2991ZM8.75 6.50761C8.7577 6.85719 8.69549 7.20479 8.56703 7.53001C8.43857 7.85522 8.24645 8.1515 8.00193 8.40146C7.75741 8.65142 7.46543 8.85003 7.14312 8.98561C6.82081 9.1212 6.47467 9.19105 6.125 9.19105C5.77533 9.19105 5.42919 9.1212 5.10688 8.98561C4.78457 8.85003 4.49258 8.65142 4.24807 8.40146C4.00355 8.1515 3.81143 7.85522 3.68297 7.53001C3.55451 7.20479 3.4923 6.85719 3.5 6.50761C3.51511 5.82142 3.79831 5.16843 4.28894 4.68848C4.77958 4.20853 5.43865 3.93977 6.125 3.93977C6.81135 3.93977 7.47042 4.20853 7.96105 4.68848C8.45169 5.16843 8.73489 5.82142 8.75 6.50761Z" fill="#999999"/>
</svg>
